<?xml version="1.0" standalone="no"?>
<!DOCTYPE svg PUBLIC "-//W3C//DTD SVG 20010904//EN"
 "http://www.w3.org/TR/2001/REC-SVG-20010904/DTD/svg10.dtd">
<svg version="1.0" xmlns="http://www.w3.org/2000/svg"
 width="164.000000pt" height="164.000000pt" viewBox="0 0 164.000000 164.000000"
 preserveAspectRatio="xMidYMid meet">
<metadata>
Created by potrace 1.11, written by Peter Selinger 2001-2013
</metadata>
<g transform="translate(0.000000,164.000000) scale(0.100000,-0.100000)"
fill="#000000" stroke="none">
<path d="M889 1610 c-1 -11 -2 -23 -3 -27 -3 -9 -15 -133 -21 -198 -1 -22 -3
-67 -4 -99 -1 -77 -8 -69 -15 20 -12 139 -53 224 -131 270 -25 14 -47 25 -49
23 -6 -6 122 -360 152 -419 25 -51 27 -63 26 -178 -1 -111 -9 -158 -21 -124
-13 35 -53 -3 -79 -76 l-13 -37 -1 64 c0 56 -2 62 -17 56 -10 -4 -33 -9 -50
-12 -20 -3 -33 -11 -33 -20 0 -11 7 -14 25 -11 14 3 25 0 26 -6 1 -18 -2 -107
-7 -168 -3 -52 -2 -58 15 -58 14 0 21 10 26 37 13 69 48 146 81 180 42 42 43
31 4 -89 -58 -182 -86 -343 -95 -551 -6 -134 12 -144 48 -27 19 60 87 165 102
159 6 -2 10 -29 10 -59 -1 -68 -37 -150 -90 -203 -26 -26 -35 -41 -28 -48 14
-14 115 99 148 165 20 40 25 65 25 123 l0 73 -28 0 c-31 0 -73 -39 -111 -102
-13 -21 -25 -38 -27 -38 -2 0 -2 26 1 58 3 31 8 81 11 110 11 115 36 199 63
217 6 3 8 12 4 20 -3 8 0 15 6 15 6 0 11 -6 11 -14 0 -53 74 -29 116 38 16 25
31 46 35 46 3 0 2 -25 -1 -55 -7 -60 -5 -62 47 -43 36 13 46 34 12 25 -21 -6
-21 -4 -14 91 12 175 16 157 -30 157 -31 0 -48 -7 -76 -32 -33 -30 -89 -127
-89 -154 0 -7 -2 -10 -5 -7 -11 11 26 163 50 203 14 25 51 62 87 88 99 71 131
105 196 203 33 51 74 101 91 113 39 28 40 51 4 52 -118 6 -176 -23 -268 -135
-39 -47 -85 -113 -103 -148 -32 -62 -32 -62 -27 -23 3 22 15 70 26 107 17 58
19 89 15 230 -2 90 -5 180 -5 201 -1 38 -20 53 -22 17z m115 -786 c-1 -47 -39
-129 -73 -156 -23 -18 -26 -18 -37 -3 -21 28 14 124 64 178 34 35 47 30 46
-19z"/>
<path d="M1173 1152 c-15 -10 -33 -75 -57 -207 -5 -28 -14 -133 -22 -243 -6
-88 -5 -94 13 -90 14 2 20 17 26 66 5 34 12 62 15 62 4 -1 33 -39 66 -85 60
-87 92 -122 102 -113 3 3 -15 37 -38 74 -64 100 -72 121 -49 129 79 25 96 145
21 145 -27 0 -56 -23 -94 -75 -15 -19 -15 -19 -11 5 2 14 6 49 9 79 11 92 36
189 58 216 11 14 18 28 15 31 -8 9 -44 12 -54 6z m77 -321 c0 -33 -48 -81 -81
-81 -19 0 -19 1 1 39 18 37 54 71 72 71 5 0 8 -13 8 -29z"/>
<path d="M100 962 c-18 -6 -11 -22 9 -22 11 0 23 -6 28 -12 4 -7 8 -73 9 -146
1 -133 -2 -146 -35 -147 -8 0 -16 -5 -18 -11 -5 -15 168 -27 201 -14 64 24 78
119 26 172 -28 27 -29 32 -16 47 29 32 28 71 -4 102 -16 16 -38 30 -49 30 -53
3 -142 4 -151 1z m152 -37 c37 -15 30 -83 -12 -105 -42 -23 -50 -14 -50 55 0
70 4 73 62 50z m36 -170 c42 -50 18 -123 -43 -127 -49 -3 -55 6 -55 88 l0 74
38 -5 c23 -3 45 -14 60 -30z"/>
<path d="M505 884 c-100 -52 -168 -274 -84 -274 34 0 57 18 85 65 14 25 28 45
31 45 3 0 3 -25 1 -55 -3 -30 -3 -55 0 -55 3 0 22 5 43 12 41 12 52 28 20 28
-27 0 -28 8 -16 126 6 57 9 108 6 112 -10 13 -58 10 -86 -4z m39 -57 c-2 -78
-90 -205 -115 -166 -19 31 21 142 67 184 35 33 49 27 48 -18z"/>
<path d="M1413 854 c-52 -53 -86 -125 -86 -180 0 -52 8 -64 42 -64 29 0 56 24
87 78 10 17 22 32 26 32 7 0 2 -70 -7 -97 -5 -16 9 -16 52 -1 37 14 44 28 12
28 -20 0 -20 3 -13 93 12 164 15 151 -31 153 -35 1 -46 -5 -82 -42z m75 -14
c7 -46 -56 -175 -91 -184 -49 -13 -29 105 30 174 38 44 56 47 61 10z"/>
<path d="M467 435 c-137 -48 -160 -231 -42 -321 30 -22 49 -28 110 -32 87 -5
95 -1 132 71 17 34 21 53 14 60 -7 7 -15 -1 -27 -26 -21 -44 -59 -61 -123 -55
-174 17 -188 262 -15 285 48 7 103 -14 114 -43 14 -37 30 -29 30 15 0 39 0 39
-50 50 -65 14 -96 13 -143 -4z"/>
<path d="M1060 359 c-33 -20 -80 -86 -102 -144 -18 -47 -16 -101 5 -122 23
-23 66 2 102 59 17 26 32 47 36 47 3 1 2 -24 -1 -54 -3 -31 -4 -57 -2 -59 7
-8 81 27 76 36 -3 5 -13 7 -21 3 -14 -5 -15 6 -9 87 4 51 9 107 12 124 5 30 3
32 -31 36 -23 3 -46 -2 -65 -13z m47 -61 c-7 -51 -53 -145 -78 -159 -29 -15
-51 5 -43 40 14 56 48 123 76 146 38 32 52 23 45 -27z"/>
<path d="M1241 356 c-50 -13 -73 -42 -27 -34 l27 5 -2 -84 c-1 -46 -5 -102 -9
-124 -7 -36 -6 -39 16 -39 13 0 24 6 25 13 1 6 2 23 4 37 5 47 16 240 13 239
-2 -1 -23 -6 -47 -13z"/>
</g>
</svg>
